<svg width="1112" height="330" viewBox="0 0 1112 330" fill="none" xmlns="http://www.w3.org/2000/svg">
<circle cx="8" cy="166" r="8" fill="#B1B7CC"/>
<path d="M1112 167C1112 171.418 1108.42 175 1104 175C1099.58 175 1096 171.418 1096 167C1096 162.582 1099.58 159 1104 159C1108.42 159 1112 162.582 1112 167Z" fill="#B1B7CC"/>
<path d="M7.64469 159.207L7.61834 10.8637C7.61756 6.44439 11.2003 2.86159 15.6196 2.86231L218.55 2.89529C222.968 2.896 226.548 6.47683 226.549 10.8942L226.593 319.418C226.593 323.836 230.174 327.417 234.592 327.417L438.039 327.443C442.458 327.443 446.04 323.861 446.04 319.442L445.996 10.9263C445.995 6.50719 449.578 2.92459 453.997 2.92514L656.908 2.9504C661.336 2.95095 664.92 6.54687 664.907 10.9739L664.001 319.449C663.988 323.876 667.572 327.472 671.999 327.472L874.922 327.498C879.336 327.498 882.917 323.923 882.923 319.509L883.356 10.9684C883.362 6.55406 886.942 2.979 891.357 2.97956L1096.3 3.00567C1100.71 3.00623 1104.3 6.58709 1104.3 11.0045L1104.32 161.214" stroke="#B1B7CC" stroke-width="3"/>
</svg>
